<svg width="987" height="700" viewBox="0 0 987 700" fill="none" xmlns="http://www.w3.org/2000/svg">
<path d="M125.217 275.311C119.309 259.617 130.909 242.856 147.678 242.856H460V545.704H243.61C233.617 545.704 224.669 539.512 221.148 530.159L125.217 275.311Z" fill="#FADF5A" fill-opacity="0.3"/>
<path d="M0 -43H374V283.836H137.707C127.666 283.836 118.686 277.585 115.2 268.168L0 -43Z" fill="#5A77FA" fill-opacity="0.3"/>
<path d="M43 0.421286C43 0.188615 43.1886 -4.07919e-06 43.4213 -9.11206e-06L1018 -0.0210874C1031.25 -0.021374 1042 10.7239 1042 23.9789V676C1042 689.255 1031.25 700 1018 700H675.5H443L406.443 695.848C363.599 690.983 325.44 666.51 303.147 629.601L258.082 554.991C257.362 553.799 256.747 552.547 256.244 551.249L43.0284 0.573431C43.0096 0.524915 43 0.473312 43 0.421286Z" fill="#FADF5A"/>
</svg>
