<svg width="467" height="116" viewBox="0 0 467 116" fill="none" xmlns="http://www.w3.org/2000/svg">
<path d="M5.85806 29.9115C6.02443 19.3494 14.3759 10.7369 24.9278 10.2456L223.666 0.993648C235.218 0.455839 244.816 9.79932 244.59 21.3621L243.429 80.4809C243.223 91.0124 234.883 99.5795 224.361 100.069L25.852 109.311C14.3302 109.847 4.74532 100.553 4.92698 89.0196L5.85806 29.9115Z" fill="#FADF5A" fill-opacity="0.3"/>
<path d="M30.1987 34.5856C31.1286 24.4494 39.523 16.6284 49.6994 16.4168L442.409 8.24847C454.395 7.99916 463.906 18.2787 462.728 30.2094L456.888 89.3446C455.892 99.4212 447.523 107.164 437.4 107.375L45.1065 115.535C33.176 115.783 23.6843 105.595 24.7745 93.7121L30.1987 34.5856Z" fill="#637BE6"/>
</svg>
