<svg width="48" height="48" viewBox="0 0 48 48" fill="none" xmlns="http://www.w3.org/2000/svg">
<path d="M23.9996 26.8001L14.1996 36.6001C13.8329 36.9668 13.3663 37.1501 12.7996 37.1501C12.2329 37.1501 11.7663 36.9668 11.3996 36.6001C11.0329 36.2334 10.8496 35.7668 10.8496 35.2001C10.8496 34.6334 11.0329 34.1668 11.3996 33.8001L21.1996 24.0001L11.3996 14.2001C11.0329 13.8334 10.8496 13.3668 10.8496 12.8001C10.8496 12.2334 11.0329 11.7668 11.3996 11.4001C11.7663 11.0334 12.2329 10.8501 12.7996 10.8501C13.3663 10.8501 13.8329 11.0334 14.1996 11.4001L23.9996 21.2001L33.7996 11.4001C34.1663 11.0334 34.6329 10.8501 35.1996 10.8501C35.7663 10.8501 36.2329 11.0334 36.5996 11.4001C36.9663 11.7668 37.1496 12.2334 37.1496 12.8001C37.1496 13.3668 36.9663 13.8334 36.5996 14.2001L26.7996 24.0001L36.5996 33.8001C36.9663 34.1668 37.1496 34.6334 37.1496 35.2001C37.1496 35.7668 36.9663 36.2334 36.5996 36.6001C36.2329 36.9668 35.7663 37.1501 35.1996 37.1501C34.6329 37.1501 34.1663 36.9668 33.7996 36.6001L23.9996 26.8001Z" fill="white"/>
</svg>
