<svg width="33" height="32" viewBox="0 0 33 32" fill="none" xmlns="http://www.w3.org/2000/svg">
<path d="M16.4997 12C17.5605 12 18.578 12.4214 19.3281 13.1716C20.0782 13.9217 20.4997 14.9391 20.4997 16C20.4997 17.0609 20.0782 18.0783 19.3281 18.8284C18.578 19.5786 17.5605 20 16.4997 20C15.4388 20 14.4214 19.5786 13.6712 18.8284C12.9211 18.0783 12.4997 17.0609 12.4997 16C12.4997 14.9391 12.9211 13.9217 13.6712 13.1716C14.4214 12.4214 15.4388 12 16.4997 12ZM16.4997 6C23.1663 6 28.8597 10.1467 31.1663 16C28.8597 21.8533 23.1663 26 16.4997 26C9.83301 26 4.13967 21.8533 1.83301 16C4.13967 10.1467 9.83301 6 16.4997 6ZM4.73967 16C5.81735 18.2004 7.49075 20.0543 9.56964 21.351C11.6485 22.6477 14.0495 23.3351 16.4997 23.3351C18.9498 23.3351 21.3508 22.6477 23.4297 21.351C25.5086 20.0543 27.182 18.2004 28.2597 16C27.182 13.7996 25.5086 11.9457 23.4297 10.649C21.3508 9.35232 18.9498 8.66491 16.4997 8.66491C14.0495 8.66491 11.6485 9.35232 9.56964 10.649C7.49075 11.9457 5.81735 13.7996 4.73967 16Z" fill="#282626"/>
</svg>
