<svg width="36" height="36" viewBox="0 0 36 36" fill="none" xmlns="http://www.w3.org/2000/svg">
<path d="M19.5421 3C21.2296 3.0045 22.0861 3.0135 22.8256 3.0345L23.1166 3.045C23.4526 3.057 23.7841 3.072 24.1846 3.09C25.7806 3.165 26.8696 3.417 27.8251 3.7875C28.8151 4.1685 29.6491 4.6845 30.4831 5.517C31.2462 6.2666 31.8364 7.17371 32.2126 8.175C32.5831 9.1305 32.8351 10.2195 32.9101 11.817C32.9281 12.216 32.9431 12.5475 32.9551 12.885L32.9641 13.176C32.9866 13.914 32.9956 14.7705 32.9986 16.458L33.0001 17.577V19.542C33.0038 20.6361 32.9923 21.7302 32.9656 22.824L32.9566 23.115C32.9446 23.4525 32.9296 23.784 32.9116 24.183C32.8366 25.7805 32.5816 26.868 32.2126 27.825C31.8364 28.8263 31.2462 29.7334 30.4831 30.483C29.7335 31.246 28.8264 31.8363 27.8251 32.2125C26.8696 32.583 25.7806 32.835 24.1846 32.91L23.1166 32.955L22.8256 32.964C22.0861 32.985 21.2296 32.9955 19.5421 32.9985L18.4231 33H16.4596C15.365 33.0039 14.2704 32.9924 13.1761 32.9655L12.8851 32.9565C12.529 32.943 12.173 32.9275 11.8171 32.91C10.2211 32.835 9.13212 32.583 8.17512 32.2125C7.17437 31.8361 6.26778 31.2459 5.51862 30.483C4.75504 29.7336 4.16428 28.8264 3.78762 27.825C3.41712 26.8695 3.16512 25.7805 3.09012 24.183L3.04512 23.115L3.03762 22.824C3.00997 21.7302 2.99747 20.6361 3.00012 19.542V16.458C2.99597 15.3639 3.00697 14.2698 3.03312 13.176L3.04362 12.885C3.05562 12.5475 3.07062 12.216 3.08862 11.817C3.16362 10.2195 3.41562 9.132 3.78612 8.175C4.16366 7.1733 4.75546 6.26615 5.52012 5.517C6.26885 4.75432 7.1749 4.16411 8.17512 3.7875C9.13212 3.417 10.2196 3.165 11.8171 3.09C12.2161 3.072 12.5491 3.057 12.8851 3.045L13.1761 3.036C14.2699 3.00935 15.364 2.99785 16.4581 3.0015L19.5421 3ZM18.0001 10.5C16.011 10.5 14.1033 11.2902 12.6968 12.6967C11.2903 14.1032 10.5001 16.0109 10.5001 18C10.5001 19.9891 11.2903 21.8968 12.6968 23.3033C14.1033 24.7098 16.011 25.5 18.0001 25.5C19.9892 25.5 21.8969 24.7098 23.3034 23.3033C24.7099 21.8968 25.5001 19.9891 25.5001 18C25.5001 16.0109 24.7099 14.1032 23.3034 12.6967C21.8969 11.2902 19.9892 10.5 18.0001 10.5ZM18.0001 13.5C18.5911 13.4999 19.1763 13.6162 19.7223 13.8423C20.2683 14.0683 20.7644 14.3997 21.1823 14.8175C21.6003 15.2353 21.9318 15.7313 22.158 16.2772C22.3843 16.8232 22.5008 17.4083 22.5009 17.9993C22.501 18.5902 22.3847 19.1754 22.1586 19.7214C21.9326 20.2674 21.6012 20.7635 21.1834 21.1814C20.7656 21.5994 20.2696 21.9309 19.7236 22.1572C19.1777 22.3834 18.5926 22.4999 18.0016 22.5C16.8081 22.5 15.6636 22.0259 14.8196 21.182C13.9757 20.3381 13.5016 19.1935 13.5016 18C13.5016 16.8065 13.9757 15.6619 14.8196 14.818C15.6636 13.9741 16.8081 13.5 18.0016 13.5M25.8766 8.25C25.3793 8.25 24.9024 8.44754 24.5508 8.79917C24.1992 9.15081 24.0016 9.62772 24.0016 10.125C24.0016 10.6223 24.1992 11.0992 24.5508 11.4508C24.9024 11.8025 25.3793 12 25.8766 12C26.3739 12 26.8508 11.8025 27.2024 11.4508C27.5541 11.0992 27.7516 10.6223 27.7516 10.125C27.7516 9.62772 27.5541 9.15081 27.2024 8.79917C26.8508 8.44754 26.3739 8.25 25.8766 8.25Z" fill="#282626"/>
</svg>
