<svg width="24" height="25" viewBox="0 0 24 25" fill="none" xmlns="http://www.w3.org/2000/svg">
<path d="M3 11.5C3 7.729 3 5.843 4.172 4.672C5.344 3.501 7.229 3.5 11 3.5H13C16.771 3.5 18.657 3.5 19.828 4.672C20.999 5.844 21 7.729 21 11.5V13.5C21 17.271 21 19.157 19.828 20.328C18.656 21.499 16.771 21.5 13 21.5H11C7.229 21.5 5.343 21.5 4.172 20.328C3.001 19.156 3 17.271 3 13.5V11.5Z" stroke="#282626" stroke-width="2"/>
<path d="M16.5 9.5C17.3284 9.5 18 8.82843 18 8C18 7.17157 17.3284 6.5 16.5 6.5C15.6716 6.5 15 7.17157 15 8C15 8.82843 15.6716 9.5 16.5 9.5Z" fill="#282626"/>
<path d="M12 15.5C13.6569 15.5 15 14.1569 15 12.5C15 10.8431 13.6569 9.5 12 9.5C10.3431 9.5 9 10.8431 9 12.5C9 14.1569 10.3431 15.5 12 15.5Z" stroke="#282626" stroke-width="2"/>
</svg>
