<svg width="148" height="58" viewBox="0 0 148 58" fill="none" xmlns="http://www.w3.org/2000/svg">
<path d="M12.5543 37.63C12.5643 37.41 12.9263 37.322 13.0343 37.514C13.5423 38.414 14.4063 39.736 15.3863 40.338C16.3663 40.94 17.9383 41.11 18.9703 41.154C19.1903 41.164 19.2763 41.526 19.0843 41.634C18.1843 42.142 16.8643 43.006 16.2623 43.986C15.6603 44.966 15.4903 46.538 15.4463 47.57C15.4363 47.79 15.0723 47.876 14.9663 47.684C14.4583 46.784 13.5943 45.464 12.6123 44.862C11.6323 44.26 10.0603 44.09 9.0303 44.046C8.8103 44.036 8.7223 43.672 8.9143 43.566C9.8143 43.058 11.1363 42.194 11.7383 41.212C12.3383 40.232 12.5103 38.66 12.5543 37.63Z" fill="#FADF5A"/>
<path opacity="0.5" d="M28.9843 35.6301C28.9663 35.4101 28.5843 35.3181 28.4683 35.5061C28.1243 36.0721 27.6283 36.7521 27.0743 37.0921C26.5203 37.4321 25.6903 37.5641 25.0303 37.6161C24.8103 37.6321 24.7183 38.0161 24.9063 38.1301C25.4703 38.4741 26.1523 38.9701 26.4923 39.5241C26.8323 40.0781 26.9643 40.9101 27.0163 41.5701C27.0323 41.7901 27.4163 41.8801 27.5303 41.6921C27.8743 41.1281 28.3703 40.4461 28.9243 40.1081C29.4783 39.7701 30.3103 39.6341 30.9703 39.5841C31.1903 39.5661 31.2803 39.1841 31.0923 39.0681C30.5283 38.7241 29.8463 38.2281 29.5083 37.6741C29.1703 37.1201 29.0343 36.2901 28.9843 35.6301Z" fill="#FADF5A"/>
<path d="M21.4063 12.604L20.9223 11.992C19.0483 9.62601 18.1123 8.44201 17.0223 8.61601C15.9343 8.79201 15.4123 10.208 14.3703 13.042L14.1003 13.774C13.8043 14.58 13.6563 14.982 13.3723 15.278C13.0883 15.574 12.7003 15.728 11.9243 16.038L11.2183 16.32L10.7243 16.52C8.32429 17.48 7.11629 18.026 6.96029 19.086C6.79629 20.216 7.94029 21.184 10.2283 23.118L10.8203 23.618C11.4723 24.168 11.7963 24.444 11.9823 24.818C12.1703 25.192 12.1963 25.624 12.2483 26.488L12.2963 27.274C12.4843 30.314 12.5763 31.834 13.5663 32.358C14.5543 32.882 15.7823 32.064 18.2383 30.426L18.8743 30.002C19.5723 29.536 19.9203 29.302 20.3203 29.24C20.7203 29.178 21.1223 29.288 21.9323 29.512L22.6663 29.716C25.5123 30.504 26.9343 30.898 27.7083 30.092C28.4843 29.286 28.0983 27.812 27.3283 24.866L27.1283 24.104C26.9103 23.266 26.8003 22.848 26.8603 22.434C26.9203 22.02 27.1443 21.656 27.5923 20.93L27.9983 20.27C29.5683 17.718 30.3543 16.442 29.8463 15.418C29.3363 14.398 27.8703 14.304 24.9383 14.122L24.1783 14.074C23.3463 14.022 22.9303 13.996 22.5683 13.804C22.2063 13.612 21.9403 13.276 21.4083 12.604" fill="#FADF5A"/>
<path opacity="0.5" d="M9.67026 31.2521C5.39626 33.3401 1.83826 36.6481 0.496259 40.6001C-1.00774 31.1861 1.08026 25.1061 4.42626 21.326C4.71426 21.916 5.09026 22.4041 5.42626 22.7861C6.12626 23.5781 7.13026 24.4261 8.15026 25.2881L8.88426 25.9081L9.22426 26.1981C9.23426 26.3261 9.24426 26.4781 9.25426 26.6721L9.31426 27.6421C9.39426 28.9521 9.47426 30.2301 9.67026 31.2521Z" fill="#FADF5A"/>
<path fill-rule="evenodd" clip-rule="evenodd" d="M20.0002 56.9307C20.0002 56.4659 20.3658 56.0834 20.8301 56.0623L31.0002 55.6C41.5002 55.1 61.9074 55.3917 82.9002 51.7792C103.893 48.1667 124.807 38.5334 135.343 33.7167L140.127 31.5133C142.777 30.2926 145.8 32.2286 145.8 35.1464V47.8C145.8 53.3229 141.323 57.8 135.8 57.8H135.343C124.807 57.8 103.893 57.8 82.9002 57.8C61.9074 57.8 40.9931 57.8 30.4574 57.8H20.8696C20.3895 57.8 20.0002 57.4108 20.0002 56.9307Z" fill="#FADF5A"/>
<path d="M23.4274 41.3264C22.7746 41.3264 22.2442 41.1768 21.8362 40.8776C21.4554 40.5784 21.2242 40.184 21.1426 39.6944C21.061 39.1776 21.1562 38.6064 21.4282 37.9808L32.1994 14.1128C32.553 13.324 32.9746 12.7664 33.4642 12.44C33.981 12.0864 34.5658 11.9096 35.2186 11.9096C35.8442 11.9096 36.4018 12.0864 36.8914 12.44C37.4082 12.7664 37.8434 13.324 38.197 14.1128L49.009 37.9808C49.3082 38.6064 49.417 39.1776 49.3354 39.6944C49.2538 40.2112 49.0226 40.6192 48.6418 40.9184C48.261 41.1904 47.7578 41.3264 47.1322 41.3264C46.3706 41.3264 45.7722 41.1496 45.337 40.796C44.929 40.4152 44.5618 39.844 44.2354 39.0824L41.5834 32.9216L43.7866 34.3496H26.569L28.7722 32.9216L26.161 39.0824C25.8074 39.8712 25.4402 40.4424 25.0594 40.796C24.6786 41.1496 24.1346 41.3264 23.4274 41.3264ZM35.137 17.9072L29.425 31.4936L28.3642 30.188H41.9914L40.9714 31.4936L35.2186 17.9072H35.137ZM59.9976 41.408C58.828 41.408 57.5904 41.2856 56.2848 41.0408C54.9792 40.796 53.8096 40.3744 52.776 39.776C52.3408 39.504 52.028 39.1912 51.8376 38.8376C51.6744 38.4568 51.6064 38.0896 51.6336 37.736C51.688 37.3552 51.824 37.0288 52.0416 36.7568C52.2864 36.4848 52.5856 36.308 52.9392 36.2264C53.32 36.1448 53.728 36.2128 54.1632 36.4304C55.2512 36.9472 56.2712 37.3144 57.2232 37.532C58.1752 37.7224 59.1136 37.8176 60.0384 37.8176C61.344 37.8176 62.3096 37.6 62.9352 37.1648C63.588 36.7024 63.9144 36.104 63.9144 35.3696C63.9144 34.744 63.6968 34.268 63.2616 33.9416C62.8536 33.588 62.228 33.3296 61.3848 33.1664L57.3048 32.3912C55.6184 32.0648 54.3264 31.4528 53.4288 30.5552C52.5584 29.6304 52.1232 28.4472 52.1232 27.0056C52.1232 25.7 52.4768 24.5712 53.184 23.6192C53.9184 22.6672 54.9248 21.9328 56.2032 21.416C57.4816 20.8992 58.9504 20.6408 60.6096 20.6408C61.8064 20.6408 62.9216 20.7768 63.9552 21.0488C65.016 21.2936 66.036 21.688 67.0152 22.232C67.4232 22.4496 67.6952 22.7352 67.8312 23.0888C67.9944 23.4424 68.0352 23.8096 67.9536 24.1904C67.872 24.544 67.7088 24.8704 67.464 25.1696C67.2192 25.4416 66.9064 25.6184 66.5256 25.7C66.172 25.7544 65.764 25.6728 65.3016 25.4552C64.4584 25.02 63.6424 24.7072 62.8536 24.5168C62.092 24.3264 61.3576 24.2312 60.6504 24.2312C59.3176 24.2312 58.3248 24.4624 57.672 24.9248C57.0464 25.3872 56.7336 25.9992 56.7336 26.7608C56.7336 27.332 56.924 27.808 57.3048 28.1888C57.6856 28.5696 58.2704 28.828 59.0592 28.964L63.1392 29.7392C64.9072 30.0656 66.24 30.664 67.1376 31.5344C68.0624 32.4048 68.5248 33.5744 68.5248 35.0432C68.5248 37.0288 67.7496 38.5928 66.1992 39.7352C64.6488 40.8504 62.5816 41.408 59.9976 41.408ZM81.5563 41.408C79.7883 41.408 78.3059 41.1088 77.1091 40.5104C75.9395 39.912 75.0691 39.0416 74.4979 37.8992C73.9267 36.7296 73.6411 35.288 73.6411 33.5744V24.884H71.5195C70.8667 24.884 70.3635 24.7208 70.0099 24.3944C69.6563 24.0408 69.4795 23.5648 69.4795 22.9664C69.4795 22.3408 69.6563 21.8648 70.0099 21.5384C70.3635 21.212 70.8667 21.0488 71.5195 21.0488H73.6411V17.336C73.6411 16.4928 73.8587 15.8536 74.2939 15.4184C74.7563 14.9832 75.3955 14.7656 76.2115 14.7656C77.0275 14.7656 77.6531 14.9832 78.0883 15.4184C78.5235 15.8536 78.7411 16.4928 78.7411 17.336V21.0488H83.0659C83.7187 21.0488 84.2219 21.212 84.5755 21.5384C84.9291 21.8648 85.1059 22.3408 85.1059 22.9664C85.1059 23.5648 84.9291 24.0408 84.5755 24.3944C84.2219 24.7208 83.7187 24.884 83.0659 24.884H78.7411V33.2888C78.7411 34.5944 79.0267 35.5736 79.5979 36.2264C80.1691 36.8792 81.0939 37.2056 82.3723 37.2056C82.8347 37.2056 83.2427 37.1648 83.5963 37.0832C83.9499 37.0016 84.2627 36.9472 84.5347 36.92C84.8611 36.8928 85.1331 37.0016 85.3507 37.2464C85.5683 37.464 85.6771 37.9264 85.6771 38.6336C85.6771 39.1776 85.5819 39.6672 85.3915 40.1024C85.2283 40.5104 84.9155 40.796 84.4531 40.9592C84.0995 41.068 83.6371 41.1632 83.0659 41.2448C82.4947 41.3536 81.9915 41.408 81.5563 41.408ZM90.6869 41.3264C89.8437 41.3264 89.1909 41.1088 88.7285 40.6736C88.2933 40.2112 88.0757 39.5584 88.0757 38.7152V23.2928C88.0757 22.4496 88.2933 21.8104 88.7285 21.3752C89.1637 20.94 89.7757 20.7224 90.5645 20.7224C91.3533 20.7224 91.9653 20.94 92.4005 21.3752C92.8357 21.8104 93.0533 22.4496 93.0533 23.2928V25.8632H92.6453C93.0261 24.2312 93.7741 22.9936 94.8893 22.1504C96.0045 21.3072 97.4869 20.804 99.3365 20.6408C99.9077 20.5864 100.356 20.736 100.683 21.0896C101.036 21.416 101.24 21.9328 101.295 22.64C101.349 23.32 101.186 23.8776 100.805 24.3128C100.452 24.7208 99.9077 24.9656 99.1733 25.0472L98.2757 25.1288C96.6165 25.292 95.3653 25.8088 94.5221 26.6792C93.6789 27.5224 93.2573 28.7192 93.2573 30.2696V38.7152C93.2573 39.5584 93.0397 40.2112 92.6045 40.6736C92.1693 41.1088 91.5301 41.3264 90.6869 41.3264ZM110.423 41.408C108.981 41.408 107.689 41.136 106.547 40.592C105.431 40.0208 104.547 39.2592 103.895 38.3072C103.269 37.3552 102.956 36.2808 102.956 35.084C102.956 33.6152 103.337 32.4592 104.099 31.616C104.86 30.7456 106.098 30.12 107.811 29.7392C109.525 29.3584 111.823 29.168 114.707 29.168H116.747V32.1056H114.747C113.061 32.1056 111.715 32.1872 110.708 32.3504C109.702 32.5136 108.981 32.7992 108.546 33.2072C108.138 33.588 107.934 34.132 107.934 34.8392C107.934 35.7368 108.247 36.4712 108.872 37.0424C109.498 37.6136 110.368 37.8992 111.483 37.8992C112.381 37.8992 113.17 37.6952 113.85 37.2872C114.557 36.852 115.115 36.2672 115.523 35.5328C115.931 34.7984 116.135 33.9552 116.135 33.0032V28.3112C116.135 26.9512 115.835 25.972 115.237 25.3736C114.639 24.7752 113.632 24.476 112.218 24.476C111.429 24.476 110.572 24.5712 109.647 24.7616C108.75 24.952 107.798 25.2784 106.791 25.7408C106.275 25.9856 105.812 26.0536 105.404 25.9448C105.023 25.836 104.724 25.6184 104.507 25.292C104.289 24.9384 104.18 24.5576 104.18 24.1496C104.18 23.7416 104.289 23.3472 104.507 22.9664C104.724 22.5584 105.091 22.2592 105.608 22.0688C106.859 21.552 108.056 21.1848 109.199 20.9672C110.368 20.7496 111.429 20.6408 112.381 20.6408C114.339 20.6408 115.944 20.94 117.195 21.5384C118.474 22.1368 119.426 23.048 120.051 24.272C120.677 25.4688 120.99 27.0192 120.99 28.9232V38.7152C120.99 39.5584 120.786 40.2112 120.378 40.6736C119.97 41.1088 119.385 41.3264 118.623 41.3264C117.862 41.3264 117.263 41.1088 116.828 40.6736C116.42 40.2112 116.216 39.5584 116.216 38.7152V36.7568H116.543C116.352 37.7088 115.971 38.5384 115.4 39.2456C114.856 39.9256 114.163 40.456 113.319 40.8368C112.476 41.2176 111.511 41.408 110.423 41.408ZM135.754 39.6944C135.156 39.6944 134.694 39.5312 134.367 39.2048C134.041 38.8512 133.878 38.3752 133.878 37.7768V31.0856H127.309C126.738 31.0856 126.289 30.936 125.962 30.6368C125.636 30.3104 125.473 29.8616 125.473 29.2904C125.473 28.7192 125.636 28.284 125.962 27.9848C126.289 27.6584 126.738 27.4952 127.309 27.4952H133.878V21.008C133.878 20.4096 134.041 19.9472 134.367 19.6208C134.694 19.2944 135.17 19.1312 135.795 19.1312C136.394 19.1312 136.842 19.2944 137.142 19.6208C137.468 19.9472 137.631 20.4096 137.631 21.008V27.4952H144.2C144.798 27.4952 145.247 27.6584 145.546 27.9848C145.873 28.284 146.036 28.7192 146.036 29.2904C146.036 29.8616 145.873 30.3104 145.546 30.6368C145.247 30.936 144.798 31.0856 144.2 31.0856H137.631V37.7768C137.631 38.3752 137.468 38.8512 137.142 39.2048C136.842 39.5312 136.38 39.6944 135.754 39.6944Z" fill="#637BE6"/>
</svg>
