<svg width="36" height="36" viewBox="0 0 36 36" fill="none" xmlns="http://www.w3.org/2000/svg">
<path fill-rule="evenodd" clip-rule="evenodd" d="M29.6653 6.64495C30.036 6.48893 30.4417 6.43513 30.8403 6.48912C31.2388 6.54312 31.6156 6.70295 31.9314 6.95198C32.2472 7.201 32.4905 7.53012 32.6359 7.90507C32.7813 8.28003 32.8236 8.68711 32.7583 9.08395L29.3563 29.7194C29.0263 31.7099 26.8423 32.8514 25.0168 31.8599C23.4898 31.0304 21.2218 29.7524 19.1818 28.4189C18.1618 27.7514 15.0373 25.6139 15.4213 24.0929C15.7513 22.7924 21.0013 17.9054 24.0013 14.9999C25.1788 13.8584 24.6418 13.1999 23.2513 14.2499C19.7983 16.8569 14.2543 20.8214 12.4213 21.9374C10.8043 22.9214 9.96135 23.0894 8.95335 22.9214C7.11435 22.6154 5.40885 22.1414 4.01685 21.5639C2.13585 20.7839 2.22735 18.1979 4.01535 17.4449L29.6653 6.64495Z" fill="#282626"/>
</svg>
