<svg width="24" height="25" viewBox="0 0 24 25" fill="none" xmlns="http://www.w3.org/2000/svg">
<path d="M11.9852 15.908L15.2272 19.594C16.4272 20.959 17.0282 21.642 17.6572 21.475C18.2852 21.309 18.5012 20.411 18.9322 18.614L21.3222 8.64604C21.9872 5.87804 22.3192 4.49504 21.5812 3.81204C20.8432 3.12904 19.5642 3.63704 17.0062 4.65204L5.14023 9.36504C3.09423 10.178 2.07123 10.584 2.00623 11.282C1.99857 11.3532 1.99857 11.4249 2.00623 11.496C2.06923 12.195 3.09023 12.604 5.13423 13.423C6.05923 13.794 6.52223 13.98 6.85423 14.335C6.89156 14.375 6.92756 14.4164 6.96223 14.459C7.26823 14.839 7.39823 15.339 7.65923 16.335L8.14823 18.202C8.40123 19.172 8.52823 19.658 8.86123 19.724C9.19423 19.79 9.48323 19.388 10.0622 18.583L11.9852 15.908ZM11.9852 15.908L11.6682 15.578C11.3062 15.2 11.1252 15.012 11.1252 14.778C11.1252 14.544 11.3052 14.355 11.6682 13.978L15.2412 10.254" stroke="#282626" stroke-width="1.5" stroke-linecap="round" stroke-linejoin="round"/>
</svg>
