<svg width="36" height="36" viewBox="0 0 36 36" fill="none" xmlns="http://www.w3.org/2000/svg">
<path fill-rule="evenodd" clip-rule="evenodd" d="M18.6333 3.96095C20.1684 3.9375 21.6918 3.94921 23.2151 3.9375C23.3089 5.73047 23.9534 7.55856 25.2658 8.82415C26.5783 10.1249 28.4298 10.7226 30.2344 10.9218V15.6444C28.5469 15.5858 26.8478 15.2342 25.3127 14.5077C24.6447 14.203 24.0237 13.8163 23.4143 13.4178C23.4026 16.8397 23.4261 20.2615 23.3909 23.6716C23.2972 25.3122 22.7581 26.9411 21.809 28.2888C20.2739 30.5388 17.6138 32.0035 14.8835 32.0504C13.2078 32.1442 11.5321 31.6871 10.1024 30.8434C7.73536 29.4489 6.07134 26.8942 5.82528 24.1521C5.80183 23.5661 5.79013 22.9802 5.81354 22.406C6.02448 20.1795 7.12599 18.0467 8.83687 16.5936C10.7821 14.9061 13.5007 14.0975 16.0436 14.578C16.067 16.3124 15.9967 18.0467 15.9967 19.7811C14.8366 19.406 13.4773 19.5115 12.4578 20.2146C11.7195 20.6951 11.1571 21.4334 10.8641 22.2654C10.618 22.8631 10.6883 23.5193 10.7 24.1521C10.9813 26.0739 12.8328 27.6911 14.8014 27.5153C16.1139 27.5036 17.3677 26.7419 18.0474 25.6286C18.27 25.2419 18.5161 24.8435 18.5278 24.3864C18.645 22.2888 18.5981 20.2029 18.6099 18.1053C18.6216 13.3827 18.5981 8.67182 18.6333 3.96095Z" fill="#282626"/>
</svg>
