<svg width="24" height="25" viewBox="0 0 24 25" fill="none" xmlns="http://www.w3.org/2000/svg">
<path d="M7.96485 6.702C7.77899 6.67478 7.58942 6.7122 7.42785 6.808H7.41385C7.03885 7.028 6.70085 7.305 6.41285 7.631C6.17285 7.908 6.04285 8.188 6.00885 8.458C5.98885 8.618 6.00285 8.78 6.04985 8.933L6.06785 8.943C6.33785 9.736 6.68985 10.499 7.11985 11.217C7.67455 12.2253 8.35683 13.158 9.14985 13.992L9.17385 14.026L9.21185 14.054L9.23485 14.081L9.26285 14.105C10.0998 14.9003 11.0347 15.5858 12.0448 16.145C13.1998 16.774 13.9008 17.071 14.3218 17.195V17.201C14.4448 17.239 14.5568 17.256 14.6698 17.256C15.0286 17.2303 15.3682 17.0844 15.6338 16.842C15.9588 16.554 16.2338 16.215 16.4478 15.838V15.831C16.6488 15.451 16.5808 15.093 16.2908 14.85C15.7088 14.3404 15.0789 13.8883 14.4098 13.5C13.9618 13.257 13.5068 13.404 13.3228 13.65L12.9298 14.146C12.7278 14.392 12.3618 14.358 12.3618 14.358L12.3518 14.364C9.62085 13.667 8.89185 10.902 8.89185 10.902C8.89185 10.902 8.85785 10.526 9.11085 10.334L9.60285 9.938C9.83885 9.746 10.0028 9.292 9.74985 8.844C9.36243 8.17543 8.91133 7.54584 8.40285 6.964C8.29162 6.82738 8.13585 6.73427 7.96285 6.701M12.5798 5.5C12.4472 5.5 12.3201 5.55268 12.2263 5.64645C12.1325 5.74021 12.0798 5.86739 12.0798 6C12.0798 6.13261 12.1325 6.25979 12.2263 6.35355C12.3201 6.44732 12.4472 6.5 12.5798 6.5C13.8438 6.5 14.8938 6.913 15.7248 7.705C16.1518 8.138 16.4848 8.651 16.7028 9.213C16.9218 9.776 17.0218 10.377 16.9958 10.979C16.9903 11.1116 17.0376 11.241 17.1274 11.3387C17.2173 11.4364 17.3422 11.4944 17.4748 11.5C17.6075 11.5056 17.7368 11.4582 17.8346 11.3684C17.9323 11.2786 17.9903 11.1536 17.9958 11.021C18.0257 10.2806 17.9028 9.5419 17.6348 8.851C17.3657 8.15658 16.9557 7.52536 16.4308 6.997L16.4208 6.987C15.3898 6.002 14.0858 5.5 12.5798 5.5Z" fill="#282626"/>
<path d="M12.5449 7.14407C12.4123 7.14407 12.2851 7.19674 12.1914 7.29051C12.0976 7.38428 12.0449 7.51146 12.0449 7.64407C12.0449 7.77667 12.0976 7.90385 12.1914 7.99762C12.2851 8.09139 12.4123 8.14407 12.5449 8.14407H12.5619C13.4739 8.20907 14.1379 8.51307 14.6029 9.01207C15.0799 9.52607 15.3269 10.1651 15.3079 10.9551C15.3049 11.0877 15.3546 11.2161 15.4462 11.312C15.5378 11.4079 15.6638 11.4635 15.7964 11.4666C15.929 11.4696 16.0574 11.4199 16.1533 11.3282C16.2493 11.2366 16.3049 11.1107 16.3079 10.9781C16.3319 9.94107 15.9979 9.04607 15.3359 8.33207V8.33007C14.6589 7.60407 13.7299 7.22007 12.6119 7.14507L12.5949 7.14307L12.5449 7.14407Z" fill="#282626"/>
<path d="M12.5259 8.81883C12.459 8.81293 12.3915 8.82056 12.3277 8.84129C12.2638 8.86202 12.2047 8.89541 12.154 8.93947C12.1033 8.98353 12.062 9.03735 12.0325 9.09773C12.0031 9.1581 11.9861 9.22379 11.9826 9.29088C11.9791 9.35796 11.9892 9.42506 12.0122 9.48817C12.0352 9.55128 12.0707 9.60911 12.1165 9.6582C12.1624 9.70729 12.2177 9.74663 12.2791 9.77389C12.3405 9.80114 12.4067 9.81575 12.4739 9.81683C12.8919 9.83883 13.1589 9.96483 13.3269 10.1338C13.4959 10.3038 13.6219 10.5768 13.6449 11.0038C13.6461 11.0709 13.6609 11.1371 13.6882 11.1984C13.7156 11.2597 13.755 11.3148 13.8041 11.3605C13.8533 11.4062 13.9111 11.4416 13.9742 11.4645C14.0372 11.4874 14.1043 11.4974 14.1713 11.4938C14.2383 11.4903 14.3039 11.4733 14.3642 11.4438C14.4245 11.4143 14.4783 11.3731 14.5223 11.3224C14.5663 11.2717 14.5997 11.2127 14.6204 11.1489C14.6411 11.085 14.6487 11.0177 14.6429 10.9508C14.6109 10.3508 14.4229 9.82083 14.0379 9.43083C13.6509 9.04083 13.1239 8.85083 12.5259 8.81883Z" fill="#282626"/>
<path fill-rule="evenodd" clip-rule="evenodd" d="M7.06686 2.88406C10.2489 2.17276 13.5488 2.17276 16.7309 2.88406L17.0699 2.95906C17.9998 3.16754 18.8539 3.62949 19.5373 4.2937C20.2208 4.95791 20.7069 5.79843 20.9419 6.72206C21.7503 9.90485 21.7503 13.2393 20.9419 16.4221C20.7069 17.3457 20.2208 18.1862 19.5373 18.8504C18.8539 19.5146 17.9998 19.9766 17.0699 20.1851L16.7299 20.2601C14.7368 20.7051 12.6918 20.873 10.6529 20.7591L7.99986 23.1331C7.89984 23.2226 7.77762 23.2837 7.64595 23.3099C7.51428 23.3361 7.37799 23.3264 7.25131 23.282C7.12463 23.2376 7.01219 23.1599 6.92575 23.0572C6.8393 22.9545 6.78202 22.8305 6.75986 22.6981L6.32086 20.0761C5.47927 19.8137 4.71894 19.3401 4.11236 18.7004C3.50578 18.0608 3.0732 17.2764 2.85586 16.4221C2.0474 13.2393 2.0474 9.90485 2.85586 6.72206C3.0908 5.79843 3.57695 4.95791 4.2604 4.2937C4.94385 3.62949 5.7979 3.16754 6.72786 2.95906L7.06686 2.88406ZM16.4039 4.34706C13.4371 3.68386 10.3606 3.68386 7.39386 4.34706L7.05386 4.42306C6.39482 4.57124 5.78965 4.89892 5.30534 5.36981C4.82103 5.8407 4.47649 6.43644 4.30986 7.09106C3.56286 10.0317 3.56286 13.1124 4.30986 16.0531C4.47657 16.7078 4.82126 17.3036 5.30576 17.7745C5.79025 18.2454 6.39564 18.573 7.05486 18.7211L7.14486 18.7411C7.29045 18.7736 7.42303 18.8489 7.52563 18.9572C7.62824 19.0655 7.69621 19.2019 7.72086 19.3491L8.01486 21.1071L9.88686 19.4321C9.96162 19.365 10.0491 19.3136 10.1441 19.2809C10.2391 19.2483 10.3397 19.2351 10.4399 19.2421C12.4389 19.3832 14.4479 19.2333 16.4039 18.7971L16.7429 18.7211C17.4021 18.573 18.0075 18.2454 18.492 17.7745C18.9765 17.3036 19.3212 16.7078 19.4879 16.0531C20.2339 13.1131 20.2339 10.0321 19.4879 7.09106C19.3212 6.43631 18.9765 5.84049 18.492 5.36958C18.0075 4.89868 17.4021 4.57108 16.7429 4.42306L16.4039 4.34706Z" fill="#282626"/>
</svg>
