<svg width="24" height="25" viewBox="0 0 24 25" fill="none" xmlns="http://www.w3.org/2000/svg">
<path d="M19.0498 5.41005C18.1329 4.48416 17.0408 3.75002 15.8373 3.25042C14.6338 2.75081 13.3429 2.49574 12.0398 2.50005C6.57981 2.50005 2.1298 6.95005 2.1298 12.4101C2.1298 14.1601 2.5898 15.8601 3.44981 17.3601L2.0498 22.5L7.29981 21.1201C8.74981 21.9101 10.3798 22.33 12.0398 22.33C17.4998 22.33 21.9498 17.8801 21.9498 12.4201C21.9498 9.77005 20.9198 7.28005 19.0498 5.41005ZM12.0398 20.65C10.5598 20.65 9.10981 20.25 7.83981 19.5L7.53981 19.32L4.41981 20.14L5.24981 17.1001L5.04981 16.7901C4.22735 15.4771 3.79073 13.9593 3.78981 12.4101C3.78981 7.87005 7.48981 4.17005 12.0298 4.17005C14.2298 4.17005 16.2998 5.03005 17.8498 6.59005C18.6174 7.35392 19.2257 8.2626 19.6394 9.26338C20.0531 10.2642 20.264 11.3371 20.2598 12.4201C20.2798 16.9601 16.5798 20.65 12.0398 20.65ZM16.5598 14.4901C16.3098 14.3701 15.0898 13.7701 14.8698 13.6801C14.6398 13.6001 14.4798 13.5601 14.3098 13.8001C14.1398 14.0501 13.6698 14.6101 13.5298 14.7701C13.3898 14.9401 13.2398 14.9601 12.9898 14.8301C12.7398 14.7101 11.9398 14.4401 10.9998 13.6001C10.2598 12.9401 9.76981 12.1301 9.61981 11.8801C9.47981 11.6301 9.59981 11.5001 9.72981 11.3701C9.83981 11.2601 9.97981 11.0801 10.0998 10.9401C10.2198 10.8001 10.2698 10.6901 10.3498 10.5301C10.4298 10.3601 10.3898 10.2201 10.3298 10.1001C10.2698 9.98005 9.76981 8.76005 9.56981 8.26005C9.36981 7.78005 9.15981 7.84005 9.00981 7.83005H8.52981C8.35981 7.83005 8.09981 7.89005 7.86981 8.14005C7.64981 8.39005 7.00981 8.99005 7.00981 10.2101C7.00981 11.4301 7.89981 12.6101 8.01981 12.7701C8.13981 12.9401 9.76981 15.4401 12.2498 16.5101C12.8398 16.7701 13.2998 16.9201 13.6598 17.0301C14.2498 17.2201 14.7898 17.1901 15.2198 17.1301C15.6998 17.0601 16.6898 16.5301 16.8898 15.9501C17.0998 15.3701 17.0998 14.8801 17.0298 14.7701C16.9598 14.6601 16.8098 14.6101 16.5598 14.4901Z" fill="#282626"/>
</svg>
