<svg xmlns="http://www.w3.org/2000/svg" version="1.1" xmlns:xlink="http://www.w3.org/1999/xlink" width="1000" height="1000"><g clip-path="url(#SvgjsClipPath1870)"><rect width="1000" height="1000" fill="#ffffff"></rect><g transform="matrix(20.833333333333332,0,0,20.833333333333332,0,0)"><svg xmlns="http://www.w3.org/2000/svg" version="1.1" xmlns:xlink="http://www.w3.org/1999/xlink" width="48" height="48"><svg width="48" height="48" viewBox="0 0 48 48" fill="none" xmlns="http://www.w3.org/2000/svg">
<rect width="48" height="48" fill="#637BE6"></rect>
<path d="M19.5783 34.5479C19.5888 34.3156 19.9711 34.2227 20.0851 34.4254C20.6216 35.3758 21.534 36.7718 22.5689 37.4075C23.6037 38.0433 25.2638 38.2228 26.3536 38.2692C26.5859 38.2798 26.6767 38.6621 26.4739 38.7761C25.5235 39.3126 24.1296 40.225 23.4939 41.2598C22.8582 42.2947 22.6787 43.9547 22.6322 45.0445C22.6217 45.2769 22.2373 45.3677 22.1253 45.1649C21.5889 44.2145 20.6765 42.8206 19.6395 42.1849C18.6046 41.5492 16.9446 41.3697 15.8569 41.3232C15.6246 41.3126 15.5317 40.9282 15.7344 40.8163C16.6848 40.2799 18.0809 39.3675 18.7166 38.3305C19.3502 37.2956 19.5318 35.6356 19.5783 34.5479Z" fill="#FADF5A"></path>
<path opacity="0.5" d="M36.9283 32.436C36.9093 32.2037 36.5059 32.1065 36.3834 32.3051C36.0202 32.9028 35.4964 33.6208 34.9114 33.9799C34.3263 34.3389 33.4499 34.4783 32.7529 34.5332C32.5206 34.5501 32.4234 34.9556 32.622 35.076C33.2175 35.4393 33.9377 35.963 34.2968 36.5481C34.6558 37.1331 34.7952 38.0117 34.8501 38.7087C34.867 38.941 35.2725 39.036 35.3929 38.8375C35.7562 38.2419 36.2799 37.5217 36.865 37.1648C37.45 36.8078 38.3286 36.6642 39.0255 36.6114C39.2579 36.5924 39.3529 36.189 39.1544 36.0665C38.5588 35.7033 37.8386 35.1795 37.4817 34.5945C37.1247 34.0095 36.9811 33.133 36.9283 32.436Z" fill="#FADF5A"></path>
<path d="M28.926 8.12049L28.4149 7.47421C26.4359 4.97572 25.4475 3.72541 24.2965 3.90916C23.1475 4.09501 22.5963 5.59031 21.4959 8.58301L21.2108 9.35601C20.8983 10.2071 20.742 10.6317 20.4421 10.9442C20.1422 11.2568 19.7324 11.4194 18.913 11.7468L18.1674 12.0446L17.6458 12.2558C15.1114 13.2695 13.8357 13.8461 13.671 14.9655C13.4978 16.1588 14.7059 17.181 17.122 19.2233L17.7471 19.7513C18.4357 20.3321 18.7778 20.6235 18.9742 21.0185C19.1727 21.4134 19.2002 21.8696 19.2551 22.782L19.3058 23.612C19.5043 26.8223 19.6015 28.4274 20.6469 28.9807C21.6903 29.5341 22.987 28.6703 25.5806 26.9405L26.2522 26.4928C26.9893 26.0007 27.3567 25.7536 27.7791 25.6881C28.2015 25.6226 28.6261 25.7388 29.4814 25.9753L30.2565 26.1908C33.2619 27.0229 34.7635 27.439 35.5809 26.5878C36.4003 25.7367 35.9927 24.1801 35.1796 21.0692L34.9684 20.2645C34.7382 19.3796 34.622 18.9382 34.6854 18.501C34.7487 18.0638 34.9853 17.6794 35.4584 16.9127L35.8871 16.2158C37.545 13.5209 38.375 12.1734 37.8386 11.0921C37.3 10.015 35.7519 9.91569 32.6558 9.7235L31.8532 9.67281C30.9746 9.61789 30.5353 9.59044 30.153 9.38769C29.7708 9.18494 29.4899 8.83012 28.9281 8.12049" fill="#FADF5A"></path>
<path opacity="0.5" d="M16.5327 27.8128C12.0194 30.0177 8.26212 33.511 6.84497 37.6843C5.25675 27.7431 7.46168 21.3226 10.9951 17.3309C11.2992 17.954 11.6962 18.4693 12.0511 18.8727C12.7903 19.709 13.8505 20.6045 14.9276 21.5148L15.7027 22.1695L16.0617 22.4758C16.0723 22.6109 16.0829 22.7714 16.0934 22.9763L16.1568 24.0006C16.2413 25.384 16.3257 26.7336 16.5327 27.8128Z" fill="#FADF5A"></path>
</svg></svg></g></g><defs><clipPath id="SvgjsClipPath1870"><rect width="1000" height="1000" x="0" y="0" rx="500" ry="500"></rect></clipPath></defs></svg>